<?xml version="1.0" encoding="utf-8"?>
<!-- Generator: Adobe Illustrator 23.0.6, SVG Export Plug-In . SVG Version: 6.00 Build 0)  -->
<svg version="1.1" id="Layer_1" xmlns="http://www.w3.org/2000/svg" xmlns:xlink="http://www.w3.org/1999/xlink" x="0px" y="0px"
	 viewBox="0 0 228 26" style="enable-background:new 0 0 228 26;" xml:space="preserve">
<style type="text/css">
	.st0{filter:url(#Adobe_OpacityMaskFilter);}
	.st1{fill-rule:evenodd;clip-rule:evenodd;fill:#FFFFFF;}
	.st2{mask:url(#mask-2_1_);fill-rule:evenodd;clip-rule:evenodd;fill:#DB1E35;}
	.st3{fill-rule:evenodd;clip-rule:evenodd;fill:#DB1E35;}
	.st4{fill-rule:evenodd;clip-rule:evenodd;fill:#231F20;}
</style>
<title>9D78EFBE-4DC9-4C75-9DD6-EFC7A5085D1D</title>
<desc>Created with sketchtool.</desc>
<g id="Icons">
	<g transform="translate(-73.000000, -383.000000)">
		<g transform="translate(73.000000, 383.000000)">
			<g id="Group">
				<g id="Group-3">
					<g id="Clip-2">
					</g>
					<defs>
						<filter id="Adobe_OpacityMaskFilter" filterUnits="userSpaceOnUse" x="0" y="0.1" width="19.7" height="25.8">
							<feColorMatrix  type="matrix" values="1 0 0 0 0  0 1 0 0 0  0 0 1 0 0  0 0 0 1 0"/>
						</filter>
					</defs>
					<mask maskUnits="userSpaceOnUse" x="0" y="0.1" width="19.7" height="25.8" id="mask-2_1_">
						<g class="st0">
							<polygon id="path-1_1_" class="st1" points="0,0.1 19.7,0.1 19.7,25.9 0,25.9 							"/>
						</g>
					</mask>
					<path id="Fill-1" class="st2" d="M15.9,7c-1.3-1-2.9-1.6-4.6-1.6c-1.3,0-3,0.7-3,2c0,1.4,1.9,2,3.1,2.3l1.8,0.5
						c3.7,1,6.6,2.7,6.6,6.7c0,2.4-0.6,4.9-2.8,6.6c-2.1,1.6-4.9,2.3-7.6,2.3c-3.4,0-6.7-1-9.4-2.8L3,18c1.7,1.4,3.8,2.5,6.2,2.5
						c1.6,0,3.4-0.7,3.4-2.5c0-1.8-2.7-2.4-4.2-2.8c-4.4-1.1-7.2-2.2-7.2-6.9c0-5,3.9-8.2,9.2-8.2c2.7,0,6,0.8,8.4,2L15.9,7z"/>
				</g>
				<path id="Fill-4" class="st3" d="M33.1,8.7L33.1,8.7l-2.9,8h5.8L33.1,8.7z M28.2,21.7L26.4,26H19L29.3,1h7.6L47,26h-7.4
					l-1.7-4.3H28.2z"/>
				<polygon id="Fill-6" class="st3" points="56.8,20.5 65,20.5 65,26 50,26 50,1 56.8,1 				"/>
				<polygon id="Fill-8" class="st3" points="74.8,20.5 83,20.5 83,26 68,26 68,1 74.8,1 				"/>
				<polygon id="Fill-10" class="st3" points="79,1 87.1,1 92,7.8 96.9,1 105,1 95.4,14 95.4,26 88.6,26 88.6,14 				"/>
				<path id="Fill-12" class="st4" d="M112.6,24.5h3.9c1.8,0,3.7,0.1,5.3-1c1.6-1,2.5-2.6,2.5-4.4c0-1.8-0.9-3.6-2.7-4.5
					c-1.6-0.8-3.7-0.8-5.4-0.8h-3.6V24.5z M112.6,12.3h2.8c1.7,0,3.1,0.1,4.6-0.9c1.5-1,1.9-2.3,1.9-4c0-1.6-0.6-3.2-2.1-4.1
					c-1.3-0.8-2.9-0.8-4.4-0.8h-2.8V12.3z M111,26V1h5.2c1.9,0,3.8,0.1,5.3,1.5c1.6,1.3,2.2,3.2,2.2,5.2c0,2.3-0.9,4-3,5.1
					c3.2,0.6,5.3,3.1,5.3,6.3c0,2-0.8,3.8-2.4,5.2c-1.8,1.5-3.7,1.8-6,1.8H111z"/>
				<polygon id="Fill-14" class="st4" points="132.7,2.5 132.7,11.6 143.7,11.6 143.7,13.1 132.7,13.1 132.7,24.5 144,24.5 144,26 
					131,26 131,1 144,1 144,2.5 				"/>
				<path id="Fill-16" class="st4" d="M186.3,1h1.7v15.4c0,2.5,0,4.7-1.8,6.7c-1.8,1.9-4.5,2.9-7.2,2.9c-2.7,0-5.4-1-7.2-2.9
					c-1.8-2.1-1.8-4.2-1.8-6.7V1h1.7v14.9c0,2.2,0,4.6,1.4,6.2c1.3,1.6,3.9,2.4,5.9,2.4c2,0,4.6-0.8,5.9-2.4c1.4-1.6,1.4-4,1.4-6.2
					V1z"/>
				<polygon id="Fill-18" class="st4" points="198.3,26 196.7,26 196.7,2.5 190,2.5 190,1 205,1 205,2.5 198.3,2.5 				"/>
				<polygon id="Fill-20" class="st4" points="209,1 210.8,1 218.5,13.7 226.2,1 228,1 219.3,15.3 219.3,26 217.7,26 217.7,15.3 
									"/>
				<path id="Fill-22" class="st4" d="M151.9,15.3L157,2.8l5.1,12.5H151.9z M157.5,0h-1L146,25h1.7l3.5-8.2h11.5l3.5,8.2h1.7
					L157.5,0z"/>
				<path id="Fill-24" class="st4" d="M225.4,23.3c0.2,0,0.6,0,0.6-0.2c0-0.2-0.2-0.2-0.4-0.2h-0.4v0.4H225.4z M226.2,24.3h-0.3
					l-0.5-0.8h-0.3v0.8h-0.2v-1.6h0.7c0.3,0,0.6,0.1,0.6,0.4c0,0.3-0.2,0.4-0.5,0.4L226.2,24.3z M226.8,23.5c0-0.7-0.6-1.3-1.3-1.3
					c-0.7,0-1.3,0.6-1.3,1.3c0,0.7,0.6,1.3,1.3,1.3C226.2,24.8,226.8,24.2,226.8,23.5z M224,23.5c0-0.8,0.7-1.5,1.5-1.5
					c0.8,0,1.5,0.7,1.5,1.5c0,0.8-0.7,1.5-1.5,1.5C224.7,25,224,24.3,224,23.5z"/>
			</g>
		</g>
	</g>
</g>
</svg>
