<?xml version="1.0" encoding="utf-8"?>
<!-- Generator: Adobe Illustrator 23.1.1, SVG Export Plug-In . SVG Version: 6.00 Build 0)  -->
<svg version="1.1" id="Layer_1" 
	xmlns="http://www.w3.org/2000/svg" 
	xmlns:xlink="http://www.w3.org/1999/xlink" x="0px" y="0px" viewBox="0 0 2000 2000" style="enable-background:new 0 0 2000 2000;" xml:space="preserve">
	<style type="text/css">
	.st0{fill:#C8AE7E;}
	.st1{fill:url(#sky_1_);}
	.st2{fill:#BB7C2A;}
	.st3{fill:#785836;}
	.st4{fill:#EFD0A3;}
	.st5{fill:#371E12;}
	</style>
	<g id="Sky">
		<rect x="0" y="-2.4" class="st0" width="2000.6" height="1252.2"/>
		<svg xmlns="http://www.w3.org/2000/svg" width="100%" height="100%">
			<linearGradient id="skyGradient" x1="0%" y1="0%" x2="0%" y2="100%">
				<stop stop-color="rgb(0,0,12)" offset="0%" id="zenith">
					<animate attributeName="stop-color" dur="60s" values="rgba(0,0,12,0);rgba(2,1,17,0);rgba(2,1,17,0);rgba(2,1,17,0);rgba(32,32,44,0.5);rgba(64,64,92,.8);rgb(74,73,105);rgb(117,122,191);rgb(130,173,219);rgb(148,197,248);rgb(183,234,255);rgb(144,223,254);rgb(87,193,235);rgb(45,145,194);rgb(36,115,171);rgb(30,82,142);rgb(30,82,142);rgb(21,66,119);rgba(22,60,82,0.8);rgba(7,27,38,.5);rgba(1,10,16,.3);rgba(9,4,1,0);rgba(0,0,12,0);rgba(0,0,12,0)" repeatCount="indefinite" />
					<animate attributeName="offset" dur="60s" values="0;.85;.6;.1;0;0;0;0;0;.01;0;0;0;0;0;0;0;0;0;0;.3,.5,.8,0" repeatCount="indefinite" />
				</stop>

				<stop stop-color="rgb(0,0,12)" offset="100%" id="horizon">
					<animate attributeName="stop-color" dur="60s" values="rgba(0,0,12,0);rgba(25,22,33,.3);rgba(32,32,44,.8);rgb(58,58,82);rgb(81,81,117);rgb(138,118,171);rgb(205,130,160);rgb(234,176,209);rgb(235,178,177);rgb(177,181,234);rgb(148,223,255);rgb(103,209,251);rgb(56,163,209);rgb(36,111,168);rgb(30,82,142);rgb(91,121,131);rgb(157,166,113);rgb(233,206,93);rgb(178,99,57);rgb(47,17,7);rgb(36,14,3);rgb(47,17,7);rgba(75,29,6,.4);rgba(21,8,0,0);rgba(0,0,12,0)" repeatCount="indefinite" />
				</stop>
			</linearGradient>
			<rect id="sky" x="0" y="0" width="100%" height="100%" style="fill:url(#skyGradient)" />
		</svg>
	</g>
	<g id="Sun">
		<circle class="st2" cx="1583.9" cy="855.9" r="67.1"/>

		<animateTransform accumulate="none" additive="replace" attributeName="transform" attributeType="xml" calcMode="linear" dur="40s" fill="remove" from="0 1000 1000" repeatCount="indefinite" restart="always" to="360 1000 1000" type="rotate">
		</animateTransform>
	</g>
	<g id="City">
		<path class="st3" d="M914.5,998.8c-91-11.2-186.4-3.8-270.7-40.9c-28.2-12.4-54.2-29.4-82-42.7c-47.2-22.6-99.4-34.2-151.6-33.7
		c-26.4,0.3-54,3.4-78.2-7.5c-10.2-4.6-19.2-11.4-29-16.6c-14.3-7.5-30.2-11.4-45.8-15.1c-61.8-14.6-123.9-27.4-186.3-38.5
		c-24.9-4.4-50.9-12.4-73.6-12l1.1,396.8c5.5,0.8,34.9-3.6,63.5-4.5c764.6-24.8,717.1-31.3,1086.7-18
		c69.9,2.5,117.6-29.6,179.2-63.5C1187.7,1079,1055.5,1016.2,914.5,998.8z"/>
		<path class="st3" d="M1091.8,1017.5c90.6-10.6,185.6-3.6,269.6-38.6c28.1-11.7,54-27.8,81.6-40.4c47-21.4,99-32.4,150.9-31.8
		c26.3,0.3,53.8,3.2,77.9-7c10.1-4.3,19.1-10.8,28.9-15.7c14.3-7.1,30-10.8,45.7-14.3c61.5-13.7,123.4-25.9,185.6-36.4
		c24.8-4.2,50.6-11.7,73.3-11.3l-1.1,374.9c-5.5,0.8-34.8-3.4-63.3-4.3c-761.4-23.4-714.1-29.6-1082.1-17
		c-69.6,2.4-117.1-28-178.5-60C819.8,1093.2,951.5,1033.9,1091.8,1017.5z"/>
		<g>
			<g>
				<path class="st3" d="M815.4,867.7h34.2v60.4h-34.2v71.3h-78.5v-71.3h-131l-4.6-48L737,661.8V661h78.5L815.4,867.7L815.4,867.7z
				 M671.3,867.7h65.5V763l-1.4-0.5l-6,9.6L671.3,867.7z"/>
				<path class="st3" d="M1118.9,865.8c0,45.7-10.6,80.2-31.8,103.6c-21.2,23.3-49.8,35-85.8,35c-36.2,0-65-11.6-86.2-35
				c-21.2-23.3-31.8-57.8-31.8-103.6v-71.1c0-45.7,10.6-80.2,31.6-103.6c21-23.3,49.7-35,86-35c36.1,0,64.8,11.7,86.1,35.1
				c21.3,23.4,31.9,57.8,31.9,103.4L1118.9,865.8L1118.9,865.8z M1040.6,789.3c0-25.8-3.4-44.4-10.2-55.8c-6.8-11.3-16.6-17-29.5-17
				c-13,0-22.8,5.7-29.4,17c-6.6,11.3-9.9,29.9-9.9,55.8v81.4c0,26.3,3.3,45.2,10,56.4c6.7,11.2,16.6,16.8,29.7,16.8
				c12.8,0,22.6-5.6,29.2-16.8c6.7-11.2,10-30.1,10-56.4L1040.6,789.3L1040.6,789.3z"/>
				<path class="st3" d="M1366.6,867.7h34.2v60.4h-34.2v71.3H1288v-71.3h-131.1l-4.6-48L1288,661.8V661h78.5V867.7z M1222.5,867.7
				h65.5V763l-1.4-0.5l-6,9.6L1222.5,867.7z"/>
			</g>
		</g>
		<g>
			<g>
				<path class="st2" d="M2004.3,1157.5c-4.6-2.5-11.7-1.8-17.8-1.8c-2.4,0-4.7,1.4-7.6,2.3c-1.9-0.6-3.9-1.3-6.4-2
				c-0.2,0.7-0.3,1.3-0.4,1.7c-4.2,0.3-8,0.5-11.8,0.7c0,0.2,0,0.4,0.1,0.6c-0.8-0.3-1.6-0.5-2.7-0.9c1.4-0.3,2.5-0.6,3.9-1
				c-1.9-1.9-5.5-2.9-11.2-3.4c1.8-0.4,3.6-0.8,5.4-1.2c0.3,0.1,0.6,0.3,0.9,0.4c0.1-0.5-0.2-1,0.4-1.4c1.1-0.6,2.5-1.4,4.1-1.5
				c3.1-0.2,6.4,0.1,9.5-0.1c1.3-0.1,3.3-0.8,3.3-1.2c-0.1-1.2-1.2-2.4-1.6-3.7c-0.2-0.5,0.4-1.1,0.4-1.6c0-0.8-0.2-1.6-0.3-2.5
				c-4.6,0.4-9.4-0.4-12.2,1.5c-1.7-0.9-3.3-1.7-5.2-2.6c-1.8,1-3.5,2-5.9,3.3c-1.9-0.7-3.6-1.4-5.3-2c0.3-0.2,0.6-0.4,0.9-0.6
				c1.7,0,3.4-0.1,5.3-0.1c5.5-3.6,3.8-5.9-6.2-7.5c2.1-1.1,4.2-2.2,6.3-3.4l-2.2,0.6c-1.7-1.1-3.4-2.3-5.3-3.6
				c-1,0.8-1.7,1.3-2.4,1.9c-1.7-1.2-2.6-2.5-4.9-3.2c-2.7-0.8-6.6-1-8.1,1.1c-2.9-0.5-5.5-1-8.4-1.6c-4.2,1.3-5.9,1-10.7-1.8
				c-3.1,2.6-7.4,4.3-15.8,2.9c1.6-0.8,2.8-1.4,3.9-2c-0.6,0.2-1.1,0.5-1.7,0.7c-2.9-1.3-5.8-2.7-8.4-3.9c-0.3,0.3-1.1,1-2.2,1.9
				c-1.8-0.5-3.3-0.9-5-1.3c-0.7,0.4-1.5,0.8-2.5,1.4c-2.5-0.7-5-1.4-7.9-2.2c-0.3,0.6-0.5,1.2-0.7,1.6c-3.3-0.2-7-0.8-9.5-0.3
				c-2.3,0.4-3.3,1.9-4.9,3c0.3,0.2,0.6,0.4,0.9,0.6c-2.4-0.1-4.8-0.2-7-0.4c-8.3-1-9.4-0.7-10,2.5c-1.4,0.2-2.7,0.6-4.1,0.6
				c-1.3,0.1-2.8-0.1-4.6-0.1c-0.2,2-2.9,2.3-7.4,2.3c-7.4,0.1-9.5,1.7-8,5.4c1.5,0,3,0.1,4.9,0.1c-0.7,0.6-1.4,1.1-2.2,1.7
				c1.2,0.1,2.4,0.1,3.7,0.2c-0.4,0.1-0.5,0.2-0.7,0.2c-2,0.1-4.1,0.2-6,0.4c-5.2,0.5-6.8,1.8-4.9,3.7c0.8,0.8,1.1,1.8,1.7,2.8
				c1.5,0.1,4,0.2,6.5,0.3c0,0.1,0.1,0.3,0.1,0.4c-4.9,1.1-9.8,2.2-14.7,3.3c0.6-4.5,1.2-9,1.8-13.7c-7.7-0.2-14.9-0.3-22.5-0.5
				v-7.5h-50.9c-0.8,2.2-1.6,4.5-2.4,7c-4.2,0.2-8.4,0.3-13.1,0.5v-51.2c-5.6-0.2-10.8-0.3-15.8-0.5c-2.2-7.1-9.1-10-23.2-10
				c-15,0-24.4,3.4-26.2,9.7c-7.2-0.1-14.4-0.3-22.7-0.4v67.3c-9.2-0.3-17.3-0.5-24.7-0.7c-0.3-2.3-0.7-4.3-0.8-6.3
				c-0.1-1-1.3-1.2-3.6-1.2c-4.7-0.1-9.5-0.3-14.2-0.3c-3.2,0-4.4-0.6-4.6-1.8c-0.4-3-1.2-5.9-1.5-8.9c-0.9-9.1-1.6-18.1-2.4-27.2
				c-0.6-6.7-1.2-13.3-1.8-20.2c-6.8,0.4-6.4-1.3-6.4-3.1c0-1.7-0.5-3.4-0.8-5.1c-1.7-0.2-3-0.4-4.4-0.5c-2.7-0.1-3.1-0.6-3.5-1.6
				c-0.4-0.9-2.2-1.7-3-2.6c-0.8-1-1.4-2.1-1.6-3.2c-0.3-2.3-0.2-4.6-0.6-6.9c-0.1-0.5-1.6-1.1-2.4-1.6c-0.5,0.1-1.1,0.2-1.6,0.2
				c-1,3.1-2.1,6.3-3.1,9.4c-0.2,0.5-0.2,1.3-0.8,1.4c-5.6,0.8-5.2,2.8-6.6,4.6c-1.6-0.1-3.1-0.1-5-0.2c-0.9,2.7-1.8,5.5-2.7,8.2
				c-0.2-0.1-0.4-0.1-0.6-0.2c-1,0.6-2.8,1.2-3,1.9c-0.7,3.1-0.9,6.3-1.2,9.4c-0.7,7.5-1.4,14.9-2.1,22.4c-0.3,3.3-0.5,6.5-1.1,9.8
				c-0.1,0.7-1.6,1.9-3,2c-6.6,0.6-9.2,2.2-8.9,4.7c0.1,0.5-0.4,1.1-0.6,1.6c-3.6,0.2-7,0.4-11.3,0.7v15.6c-8,0.2-15,0.3-22.7,0.5
				c-2.6-4.1-0.5-8.3-0.2-12.5h-19c-0.4-2.9-0.9-5.6-1.1-8.4c-0.3-4.5-0.2-9-0.5-13.5c0-0.5-1.1-1.4-2-1.5c-6.3-0.6-9-1.9-5.2-4.8
				H1395l0,0c0.1,1.1,1.3,2.4,0.1,3.2c-0.8,0.6-4.9,0.3-7.4,0.6c-1,0.1-2.2,0.7-2.3,1.1c-1.1,5.5-2.1,11.1-2.9,16.6
				c-0.2,1.4-1.3,2.1-5.2,2.2c-11.1,0.2-22.2,0.4-33.8,0.7v14.4c-9.8,0.2-19,0.4-28.4,0.6c-0.5,1.3-1,2.6-1.3,3.8
				c-0.4,1.5-2,2.1-6.1,2.1c-9.5-0.2-19-0.2-28.5-0.4c-3.6-0.1-5.9,0.3-6.3,1.7c-0.6,2.1-3.5,2.5-8.7,2.4
				c-9.3-0.2-18.7-0.1-28.5-0.1v-9.9c-4-0.4-7.7-0.7-11.6-1c1.2-3.7,2.3-7.3,3.5-11.2c-7.1-0.3-14.1-0.7-21.7-1c0-2.9,0-5.7,0-8.6
				c0-3.3,0-3.3-8.5-3.5c-0.8,0-1.6,0-2.7,0.1c-0.7,3.3-1.6,6.5-2.1,9.8c-0.2,1.1-0.9,1.6-3.6,1.7c-7.5,0.3-15,0.7-23.1,1.1
				c-0.7,3-1.5,5.9-1.9,8.8c-0.1,1.1-1.1,1.6-3.6,1.8c-3.5,0.3-7.1,0.8-10.6,0.8c-4.4,0-4.8,1-4.9,2.2c-0.3,3.1-0.4,3.1-8.1,3.1
				c-3.3,0-6.7,0-10,0c-0.3,0-0.6-0.1-1.4-0.2c0-1.6-0.1-3.3,0-5c0.1-1-1-1.3-3.4-1.2c-6.3,0.1-12.6,0.2-18.9,0.2
				c-4.7,1.7-9.9,2.7-15.2,2.7h-2.2c-6.8,0-13-1.4-18.1-3.7c-5.5,0.2-10.9,0.4-16.3,0.6v72.4h954.1v-60.9
				C2005.2,1157.5,2004.4,1157.6,2004.3,1157.5z"/>
			</g>
		</g>
		<g>
			<g>
				<path class="st2" d="M110.4,1172.7c4.6-2.5,11.7-1.8,17.8-1.8c2.4,0,4.7,1.4,7.6,2.3c1.9-0.6,3.9-1.3,6.4-2
				c0.2,0.7,0.3,1.3,0.4,1.7c4.2,0.3,8,0.5,11.8,0.7c0,0.2,0,0.4-0.1,0.6c0.8-0.3,1.6-0.5,2.7-0.9c-1.4-0.3-2.5-0.6-3.9-1
				c1.9-1.9,5.5-2.9,11.2-3.4c-1.8-0.4-3.6-0.8-5.4-1.2c-0.3,0.1-0.6,0.3-0.9,0.4c-0.1-0.5,0.2-1-0.4-1.4c-1.1-0.6-2.5-1.4-4.1-1.5
				c-3.1-0.2-6.4,0.1-9.5-0.1c-1.3-0.1-3.3-0.8-3.3-1.2c0.1-1.2,1.2-2.4,1.6-3.7c0.2-0.5-0.4-1.1-0.4-1.6c0-0.8,0.2-1.6,0.3-2.5
				c4.6,0.4,9.4-0.4,12.2,1.5c1.7-0.9,3.3-1.7,5.2-2.6c1.8,1,3.5,2,5.9,3.3c1.9-0.7,3.6-1.4,5.3-2c-0.3-0.2-0.6-0.4-0.9-0.6
				c-1.7,0-3.4-0.1-5.3-0.1c-5.5-3.6-3.8-5.9,6.2-7.5c-2.1-1.1-4.2-2.2-6.3-3.4l2.2,0.6c1.7-1.1,3.4-2.3,5.3-3.6
				c1,0.8,1.7,1.3,2.4,1.9c1.7-1.2,2.6-2.5,4.9-3.2c2.7-0.8,6.6-1,8.1,1.1c2.9-0.5,5.5-1,8.4-1.6c4.2,1.3,5.9,1,10.7-1.8
				c3.1,2.6,7.4,4.3,15.8,2.9c-1.6-0.8-2.8-1.4-3.9-2c0.6,0.2,1.1,0.5,1.7,0.7c2.9-1.3,5.8-2.7,8.4-3.9c0.3,0.3,1.1,1,2.2,1.9
				c1.8-0.5,3.3-0.9,5-1.3c0.7,0.4,1.5,0.8,2.5,1.4c2.5-0.7,5-1.4,7.9-2.2c0.3,0.6,0.5,1.2,0.7,1.6c3.3-0.2,7-0.8,9.5-0.3
				c2.3,0.4,3.3,1.9,4.9,3c-0.3,0.2-0.6,0.4-0.9,0.6c2.4-0.1,4.8-0.2,7-0.4c8.3-1,9.4-0.7,10,2.5c1.4,0.2,2.7,0.6,4.1,0.6
				c1.3,0.1,2.8-0.1,4.6-0.1c0.2,2,2.9,2.3,7.4,2.3c7.4,0.1,9.5,1.7,8,5.4c-1.5,0-3,0.1-4.9,0.1c0.7,0.6,1.4,1.1,2.2,1.7
				c-1.2,0.1-2.4,0.1-3.7,0.2c0.4,0.1,0.5,0.2,0.7,0.2c2,0.1,4.1,0.2,6,0.4c5.2,0.5,6.8,1.8,4.9,3.7c-0.8,0.8-1.1,1.8-1.7,2.8
				c-1.5,0.1-4,0.2-6.5,0.3c0,0.1-0.1,0.3-0.1,0.4c4.9,1.1,9.8,2.2,14.7,3.3c-0.6-4.5-1.2-9-1.8-13.7c7.7-0.2,14.9-0.3,22.5-0.5
				v-7.5h50.9c0.8,2.2,1.6,4.5,2.4,7c4.2,0.2,8.4,0.3,13.1,0.5v-51.2c5.6-0.2,10.8-0.3,15.8-0.5c2.2-7.1,9.1-10,23.2-10
				c15,0,24.4,3.4,26.2,9.7c7.2-0.1,14.4-0.3,22.7-0.4v67.3c9.2-0.3,17.3-0.5,24.7-0.7c0.3-2.3,0.7-4.3,0.8-6.3
				c0.1-1,1.3-1.2,3.6-1.2c4.7-0.1,9.5-0.3,14.2-0.3c3.2,0,4.4-0.6,4.6-1.8c0.4-3,1.2-5.9,1.5-8.9c0.9-9.1,1.6-18.1,2.4-27.2
				c0.6-6.7,1.2-13.3,1.8-20.2c6.8,0.4,6.4-1.3,6.4-3.1c0-1.7,0.5-3.4,0.8-5.1c1.7-0.2,3-0.4,4.4-0.5c2.7-0.1,3.1-0.6,3.5-1.6
				c0.4-0.9,2.2-1.7,3-2.6c0.8-1,1.4-2.1,1.6-3.2c0.3-2.3,0.2-4.6,0.6-6.9c0.1-0.5,1.6-1.1,2.4-1.6c0.5,0.1,1.1,0.2,1.6,0.2
				c1,3.1,2.1,6.3,3.1,9.4c0.2,0.5,0.2,1.3,0.8,1.4c5.6,0.8,5.2,2.8,6.6,4.6c1.6-0.1,3.1-0.1,5-0.2c0.9,2.7,1.8,5.5,2.7,8.2
				c0.2-0.1,0.4-0.1,0.6-0.2c1,0.6,2.8,1.2,3,1.9c0.7,3.1,0.9,6.3,1.2,9.4c0.7,7.5,1.4,14.9,2.1,22.4c0.3,3.3,0.5,6.5,1.1,9.8
				c0.1,0.7,1.6,1.9,3,2c6.6,0.6,9.2,2.2,8.9,4.7c-0.1,0.5,0.4,1.1,0.6,1.6c3.6,0.2,7,0.4,11.3,0.7v15.6c8,0.2,15,0.3,22.7,0.5
				c2.6-4.1,0.5-8.3,0.2-12.5h19c0.4-2.9,0.9-5.6,1.1-8.4c0.3-4.5,0.2-9,0.5-13.5c0-0.5,1.1-1.4,2-1.5c6.3-0.6,9-1.9,5.2-4.8h53.1
				l0,0c-0.1,1.1-1.3,2.4-0.1,3.2c0.8,0.6,4.9,0.3,7.4,0.6c1,0.1,2.2,0.7,2.3,1.1c1.1,5.5,2.1,11.1,2.9,16.6
				c0.2,1.4,1.3,2.1,5.2,2.2c11.1,0.2,22.2,0.4,33.8,0.7v14.4c9.8,0.2,19,0.4,28.4,0.6c0.5,1.3,1,2.6,1.3,3.8c0.4,1.5,2,2.1,6.1,2.1
				c9.5-0.2,19-0.2,28.5-0.4c3.6-0.1,5.9,0.3,6.3,1.7c0.6,2.1,3.5,2.5,8.7,2.4c9.3-0.2,18.7-0.1,28.5-0.1v-9.9c4-0.4,7.7-0.7,11.6-1
				c-1.2-3.7-2.3-7.3-3.5-11.2c7.1-0.3,14.1-0.7,21.7-1c0-2.9,0-5.7,0-8.6c0-3.3,0-3.3,8.5-3.5c0.8,0,1.6,0,2.7,0.1
				c0.7,3.3,1.6,6.5,2.1,9.8c0.2,1.1,0.9,1.6,3.6,1.7c7.5,0.3,15,0.7,23.1,1.1c0.7,3,1.5,5.9,1.9,8.8c0.1,1.1,1.1,1.6,3.6,1.8
				c3.5,0.3,7.1,0.8,10.6,0.8c4.4,0,4.8,1,4.9,2.2c0.3,3.1,0.4,3.1,8.1,3.1c3.3,0,6.7,0,10,0c0.3,0,0.6-0.1,1.4-0.2
				c0-1.6,0.1-3.3,0-5c-0.1-1,1-1.3,3.4-1.2c6.3,0.1,12.6,0.2,18.9,0.2c4.7,1.7,9.9,2.7,15.2,2.7h2.2c6.8,0,13-1.4,18.1-3.7
				c5.5,0.2,10.9,0.4,16.3,0.6v72.4H109v-60.9C109.5,1172.8,110.2,1172.8,110.4,1172.7z"/>
			</g>
		</g>
	</g>
	<g id="Clouds">
		<g>
			<path class="st4" d="M141.7,848.6c-2.8,0-10.7,0.6-10.4-4.4c0.4-6.1,10.4-4.7,16.9-4.8c2.5-10.4,11.5-18.9,22-20.8
			c10.5-1.9,21.9,2.8,28,11.6c0.6,0.9,1.4,3.3,2.2,3.9c2.8,0.2,12.1,0.3,17.5,0.2c12.9-0.2,10.7,13.8,1.3,13.6
			C205,847.5,162.8,848.4,141.7,848.6z"/>
			<path class="st4" d="M410.4,898.5c-2,0-7.8,0.4-7.6-3.2c0.3-4.4,7.5-3.4,12.3-3.5c1.8-7.5,8.3-13.7,16-15.1
			c7.6-1.4,15.9,2,20.3,8.4c0.4,0.6,1,2.4,1.6,2.9c2,0.1,8.8,0.2,12.7,0.2c9.4-0.2,7.8,10,1,9.9
			C456.3,897.7,425.7,898.4,410.4,898.5z"/>
			<path class="st4" d="M1573.7,891.9c-2.5,0-9.8,0.5-9.5-4c0.3-5.6,9.4-4.2,15.3-4.4c2.3-9.4,10.4-17.2,20-18.9
			c9.5-1.8,19.9,2.5,25.4,10.5c0.6,0.8,1.2,3,2,3.6c2.5,0.2,11,0.3,15.9,0.2c11.7-0.2,9.8,12.5,1.2,12.3
			C1631.1,890.9,1592.9,891.7,1573.7,891.9z"/>
			<path class="st4" d="M90.5,966.3c-4.9,0.1-18.8,1-18.3-7.7c0.6-10.7,18.2-8.2,29.6-8.4c4.4-18.2,20.1-33.1,38.5-36.5
			s38.4,4.9,49,20.3c1.1,1.6,2.4,5.9,3.9,6.9c4.9,0.3,21.3,0.5,30.6,0.4c22.7-0.4,18.8,24.2,2.3,23.8
			C201.3,964.4,127.5,965.9,90.5,966.3z"/>
			<path class="st4" d="M1784.7,930.3c-5.2,0.1-20,1.1-19.5-8.2c0.7-11.4,19.4-8.7,31.5-8.9c4.7-19.4,21.5-35.3,41-38.9
			c19.6-3.6,40.9,5.2,52.2,21.6c1.1,1.7,2.5,6.3,4.2,7.4c5.2,0.4,22.7,0.6,32.6,0.4c24.1-0.4,20,25.8,2.5,25.4
			C1902.8,928.2,1824.1,929.8,1784.7,930.3z"/>
			<path class="st4" d="M650.3,937.6c-9.4,0.1-23.4-1.3-24.2,9.4c0.8,14.3,38.2,1.3,46.1,10.9c7.9,9.6-13.6,7.4-17.2,8.6
			c-4.7,1.6-10.6,8.2-7.5,13.4c2.5,4.1,9.1,4.2,13.2,4.5c43.4,2.4,87.2,3.3,130.6,1.1c16-0.8,12.7-13.5,2-14.3
			c-4.9-0.4-16.1,0.2-20.2-2.9c-6.2-4.7,0.8-11.1,5.9-12.2c7.4-1.6,15.2-0.3,22.8-0.6c7.9-0.3,20.6,0.9,20.6-9.7
			c0-9.4-18.8-8.3-23.2-8.5c-3.2-0.2-8.3,0.2-10.7-2.3c-2.5-2.6-1.6-6.7,1.8-8c5-1.9,10.7-0.5,15.7-2.2c6.4-2.2,6.8-9.7,2.5-14
			c-4.5-4.5-11.4-4.9-17.4-4.9c-18.5,0-37-0.2-55.4-0.4c-4.7-0.1-10.1-0.1-14.2,2.6c-7.5,4.9-0.3,9.6,4.6,11.6
			c5.4,2.2,13.4,2.7,14.9,9.6c3.2,15.1-22.6,12.1-30.9,11.6C690.3,939.5,670.2,937.4,650.3,937.6z"/>
			<path class="st4" d="M1120.5,868.6c-5.5,0.5-12.1,1.8-14,7c-1.7,4.5,1.5,9.6,5.7,11.7c4.2,2.2,9.2,2.2,14,2.1
			c7.4-0.1,14.8-0.2,22.2-0.3c7.8-0.1,22.7-1.4,22.7,6.2c-0.8,5.1-14,4.2-19.8,5.1c-5.8,1-12.1,3.9-13.7,9.5
			c-3.3,11.5,7,21.3,15.4,21.3c34.7,0.3,227.1-2.4,231.3-2.7c20.7-1.6,22.1-25.4-3-25.9c-10.4-0.2-40.1,3.3-40.1-6.5
			c0-13.2,69.3-7.9,107.4-7.9c7.7,0,20.7,0.5,20.7-7.6c0-12.7-13.2-10.5-20.7-10.4c-21.6,0.5-35.6-0.5-57.3,0
			c-8.8,0.2-19.6,1.1-22.9-7.1c-1.1-6.5,13-6,21.3-6c4.4,0,13.1-1.6,12.5-6.5c-0.8-7-8.6-9.9-15-10.4c-31.8-2.4-63.8-3-95.7-2
			c-4.6,0.2-10.9,2.1-10.3,6.7c2.1,6.3,9.6,4.7,15.2,4.6c20.5-0.5,13.4,16.1-3.3,16.7C1264.9,867.2,1149.7,866,1120.5,868.6z"/>
			<path class="st4" d="M1365.6,955.9h-102.3c-3.6,0-6.5-2.9-6.5-6.5v-0.8c0-3.6,2.9-6.5,6.5-6.5h102.3c3.6,0,6.5,2.9,6.5,6.5v0.8
			C1372.1,952.9,1369.2,955.9,1365.6,955.9z"/>
			<path class="st4" d="M691.2,910h-93.8c-3.6,0-6.5,2.9-6.5,6.5l0,0c0,3.6,2.9,6.5,6.5,6.5h93.8c3.6,0,6.5-2.9,6.5-6.5l0,0
			C697.7,913,694.8,910,691.2,910z"/>
		</g>

		<animateTransform accumulate="none" additive="replace" attributeName="transform" begin="-1s" calcMode="linear" dur="60s" fill="remove" from="2000 80" repeatCount="indefinite" restart="always" to="-2000 80" type="translate">
		</animateTransform>
	</g>
	<g id="Brown">
		<g>
			<g>
				<path class="st5" d="M856.9,1185.1c5.5-3.9,14.1-2.8,21.5-2.8c2.9,0,5.8,2.2,9.2,3.5c2.4-1,4.7-1.9,7.7-3.1
				c0.2,1.1,0.4,2,0.5,2.6c5.1,0.4,9.7,0.8,14.3,1.1c0,0.3-0.1,0.6-0.1,0.9c1-0.4,2-0.8,3.3-1.3c-1.7-0.5-3.1-1-4.7-1.5
				c2.4-2.9,6.7-4.4,13.6-5.2c-2.2-0.6-4.4-1.2-6.5-1.8c-0.4,0.2-0.7,0.4-1.1,0.6c-0.1-0.7,0.2-1.6-0.5-2.1c-1.3-0.9-3-2.1-4.9-2.3
				c-3.7-0.4-7.7,0.1-11.5-0.2c-1.6-0.1-4-1.3-4-1.9c0.1-1.9,1.4-3.7,1.9-5.6c0.2-0.8-0.5-1.6-0.5-2.4c0-1.2,0.2-2.4,0.4-3.8
				c5.6,0.5,11.4-0.6,14.8,2.3c2.1-1.3,4.1-2.5,6.3-3.9c2.2,1.6,4.3,3,7.1,5c2.3-1.1,4.4-2.1,6.5-3.1c-0.4-0.3-0.7-0.6-1.1-1
				c-2.1,0-4.1-0.1-6.4-0.1c-6.7-5.6-4.6-9,7.5-11.5c-2.6-1.7-5.1-3.4-7.6-5.1l2.7,0.9c2-1.7,4.1-3.5,6.5-5.5c1.2,1.2,2,2,2.9,2.8
				c2-1.8,3.2-3.9,6-5c3.3-1.2,8-1.6,9.8,1.6c3.5-0.8,6.7-1.6,10.2-2.5c5.1,1.9,7.2,1.6,12.9-2.7c3.8,4,8.9,6.6,19.1,4.4
				c-1.9-1.2-3.3-2.2-4.8-3.1c0.7,0.4,1.4,0.7,2.1,1.1c3.5-2,7-4.1,10.2-5.9c0.4,0.4,1.3,1.5,2.6,2.9c2.2-0.7,4-1.3,6.1-2
				c0.9,0.6,1.8,1.3,3.1,2.2c3-1.1,6-2.2,9.5-3.4c0.3,1,0.7,1.8,0.9,2.5c4-0.2,8.5-1.2,11.5-0.5c2.8,0.6,4,3,5.9,4.5
				c-0.4,0.3-0.7,0.6-1.1,0.9c2.9-0.2,5.8-0.2,8.5-0.6c10-1.5,11.4-1.1,12.1,3.8c1.7,0.3,3.3,0.8,5,1c1.6,0.1,3.4-0.1,5.6-0.2
				c0.2,3,3.6,3.5,8.9,3.6c9,0.1,11.5,2.5,9.7,8.3c-1.8,0.1-3.7,0.1-6,0.2c0.9,0.9,1.7,1.7,2.6,2.6c-1.5,0.1-2.9,0.2-4.5,0.3
				c0.5,0.2,0.6,0.4,0.9,0.4c2.4,0.2,4.9,0.4,7.3,0.7c6.3,0.7,8.2,2.7,5.9,5.7c-1,1.3-1.3,2.7-2.1,4.3c-1.9,0.1-4.9,0.3-7.9,0.5
				c0,0.2-0.1,0.4-0.1,0.6c6,1.7,11.9,3.3,17.8,5c-0.7-6.9-1.4-13.8-2.2-21c9.4-0.3,18.1-0.5,27.3-0.8v-11.5h61.8
				c0.9,3.3,1.9,6.9,2.9,10.7c5.1,0.3,10.2,0.5,15.9,0.8v-78.4c6.8-0.3,13.1-0.5,19.2-0.7c2.7-10.8,11.1-15.3,28.2-15.3
				c18.2,0,29.5,5.2,31.8,14.8c8.7-0.2,17.5-0.4,27.5-0.6v103c11.1-0.4,20.9-0.8,30-1.1c0.4-3.5,0.9-6.6,1-9.6
				c0.1-1.6,1.6-1.8,4.3-1.9c5.8-0.1,11.5-0.4,17.2-0.5c3.9-0.1,5.4-1,5.6-2.8c0.5-4.5,1.4-9,1.8-13.6c1.1-13.9,1.9-27.8,2.9-41.7
				c0.7-10.2,1.4-20.4,2.2-30.9c8.2,0.7,7.8-2,7.8-4.7c0-2.6,0.6-5.2,1-7.9c2-0.3,3.6-0.7,5.3-0.7c3.3-0.1,3.8-0.9,4.2-2.4
				c0.4-1.4,2.7-2.7,3.6-4.1c1-1.6,1.7-3.2,1.9-4.8c0.4-3.5,0.2-7,0.7-10.5c0.1-0.8,1.9-1.6,2.9-2.4c0.7,0.1,1.3,0.2,2,0.4
				c1.3,4.8,2.5,9.6,3.8,14.5c0.2,0.7,0.2,2,0.9,2.1c6.8,1.2,6.3,4.3,7.9,7.1c2-0.1,3.8-0.2,6-0.3c1.1,4.2,2.2,8.4,3.3,12.5
				c0.2-0.1,0.5-0.2,0.7-0.3c1.3,1,3.4,1.9,3.6,2.9c0.8,4.8,1.1,9.6,1.5,14.4c0.9,11.4,1.7,22.9,2.5,34.3c0.4,5,0.6,10,1.3,15
				c0.2,1.1,2,2.8,3.7,3c8,1,11.2,3.4,10.8,7.2c-0.1,0.8,0.4,1.7,0.7,2.5c4.3,0.3,8.5,0.7,13.6,1.1v23.9c9.7,0.3,18.2,0.5,27.5,0.8
				c3.2-6.3,0.6-12.7,0.2-19.2h23c0.5-4.4,1.1-8.6,1.3-12.8c0.3-6.9,0.3-13.8,0.7-20.7c0-0.8,1.3-2.2,2.5-2.3
				c7.6-0.9,10.9-2.8,6.3-7.3h64.4l0,0c-0.1,1.7-1.6,3.7-0.1,4.9c1,0.9,6,0.5,9,0.9c1.2,0.2,2.7,1.1,2.8,1.7
				c1.3,8.5,2.6,17,3.5,25.4c0.2,2.2,1.6,3.3,6.3,3.4c13.4,0.3,26.9,0.7,40.9,1.1v22.1c11.8,0.3,23.1,0.6,34.5,0.9
				c0.6,2,1.2,3.9,1.6,5.9c0.4,2.3,2.4,3.3,7.4,3.1c11.5-0.3,23.1-0.3,34.6-0.7c4.4-0.1,7.1,0.5,7.6,2.7c0.8,3.2,4.3,3.9,10.5,3.7
				c11.3-0.3,22.6-0.1,34.5-0.1v-15.2c4.9-0.6,9.3-1.1,14.1-1.6c-1.4-5.6-2.8-11.2-4.3-17.1c8.6-0.5,17.1-1,26.3-1.6
				c0-4.4,0-8.8,0-13.2c0-5,0-5,10.3-5.4c0.9,0,1.9,0,3.2,0.1c0.9,5,2,10,2.5,14.9c0.2,1.6,1.1,2.4,4.4,2.6c9.1,0.5,18.2,1.1,28,1.7
				c0.8,4.5,1.9,9,2.3,13.5c0.2,1.7,1.3,2.4,4.4,2.7c4.3,0.4,8.6,1.2,12.9,1.3c5.4,0,5.8,1.5,6,3.4c0.4,4.7,0.5,4.7,9.8,4.7
				c4,0,8.1,0,12.1-0.1c0.3,0,0.7-0.1,1.7-0.4c0-2.5,0.1-5.1,0-7.7c-0.1-1.5,1.2-1.9,4.2-1.9c7.6,0.1,15.3,0.2,22.9,0.4
				c5.7,2.5,12,4.1,18.4,4.1h2.6c8.3,0,15.8-2.1,22-5.7c6.6,0.3,13.2,0.6,19.8,1v110.8h-1157v-93.2
				C855.8,1185.2,856.7,1185.2,856.9,1185.1z"/>
			</g>
		</g>
		<g>
			<g>
				<path class="st5" d="M922.3,1242.7c0.1-0.7,0.2-1.3,0.6-2c0.5-0.9,0-2.1,0.1-3.2c0.2-1.3,0.8-2.6,1-4c0.2-1.2,0-2.5,0.2-3.7
				s0.8-2.3,1-3.5c0.2-1.5,0-3,0.2-4.4c0.1-1,0.7-2,1-3c0.1-0.3,0.1-0.6,0.2-0.9c0.4-2.4-0.6-4.8,1-7.3c0.8-1.2,0.1-3.2,0.2-4.9
				c0-0.6,0.5-1.2,0.8-1.8c0.2-0.4,0.3-0.8,0.4-1.3c0.4-4.3,0.8-8.6,1.2-12.8c0.3-2.4,0.7-4.8,1.2-7.2c0.2-0.9,0.7-1.8,1-2.5
				c8.4,1.6,16.9,3.2,25.9,4.9c-0.3,2.5-0.5,5-0.8,7.6c-0.1,0.6-0.2,1.2-0.2,1.7c-0.1,3.8,0.3,7.7-0.6,11.4c-1,4.3,0.2,8.6-0.8,12.7
				c-1.2,5.1-0.2,10.3-1.3,15.2c-0.5,2.5-0.5,4.9-0.6,7.4c2.9-0.1,5.9-0.1,8.8-0.1c0.1-0.9,0.2-1.8,0.4-2.7c1.1-3.7,0.3-7.4,0.7-11
				c0.1-1.2-0.5-2.6,1.1-3.5c0.2-0.1,0.1-0.8,0.1-1.2c0-2.2-0.1-4.5,0-6.7c0.1-2.1,0.5-4.1,0.8-6.2c0.1-1.1,0.3-2.2,0.4-3.3
				c0.3-6.8,0.7-13.7,1-20.5H990c-0.2,1.9,0.2,3.9-0.6,5.4c-0.6,1.1-0.6,2.1-0.6,3.1c-0.1,10.8,0,21.5-0.1,32.3
				c0,1.3,0.2,2.9-0.5,3.9c-1.2,1.6-0.6,3.2-0.6,4.8c0,1.9,0,3.9,0.1,5.8c2.3,0,4.6,0,6.9,0.1c-0.1-6.8-0.2-13.6,0.3-20.4
				c0.8-10.4,0.3-20.7,0.6-31.1c0-0.6,0.3-1.2,0.4-1.9c0-0.6-0.1-1.1-0.2-1.8h25v7.1c0,3.2-0.2,6.4,0,9.6c0.2,3.4,0.7,6.7,1.1,10.1
				c0.1,0.5,0,0.9,0,1.4c0,6.3-0.1,12.5,0,18.8c0.1,3,0.3,6.1,0.4,9.1c3.3,0.2,6.6,0.3,9.9,0.5c0-0.6,0-1.3,0-1.9
				c-0.2-3.5,0-7-0.5-10.4c-1.6-11.9-0.2-23.9-0.8-35.8c-0.1-2.1-0.8-4.2-1.1-6.2c-0.1-0.5,0-1,0-1.5h23.8c0.3,3.6,1,7.5,0.8,11.2
				c-0.2,3,1.4,5.6,1.3,8.4c0,3-0.8,6.3,0.2,9c1.6,4.3,0,8.7,1.2,12.7c1.3,4.6,0.2,9.2,1.2,13.6c0.2,0.9,0.3,1.7,0.4,2.6
				c2.9,0.2,5.7,0.5,8.6,0.7c0-0.6,0-1.2,0-1.7c0-0.4,0.1-0.9-0.1-1c-1.8-1.2-1-2.9-1.1-4.4c-0.4-3.7,0-7.4-0.9-11.2
				c-1.2-4.7-0.1-9.7-1.3-14.6c-0.9-3.7,0.1-7.7-0.8-11.6c-0.8-3.4-0.4-7-0.5-10.5c0-0.5,0-0.9-0.1-1.4c-0.4-1.8-0.8-3.6-1.1-5.4
				c-0.4-3.1-0.1-6.2-0.6-9.4c-0.9-4.9,0-10-1.3-15c-0.8-3-0.1-6.4-0.2-9.5c0-0.5-0.5-1-0.7-1.5c-0.2-0.4-0.4-0.8-0.4-1.1
				c-0.2-4.9,0.3-9.8-1.1-14.7c-1-3.8,0.2-7.8-0.8-11.7c-0.8-3.3-0.4-6.9-0.5-10.4c0-0.5,0-0.9-0.1-1.4c-0.3-1.8-0.8-3.6-1.1-5.4
				c-0.4-3.2,0.1-6.4-0.7-9.7c-1-4.5,0.2-9.2-1.2-13.9c-1.3-4.3,0.9-9-1.3-13.4c-0.5-1.1,0.2-2.6-0.2-3.9c-0.4-1.6-0.6-2.9-0.1-4.6
				c0.4-1.3,0.9-2.3,2.1-2.9c2.1-1.1,4.3-2.2,6.5-3.2c3.2-1.3,3.2-1.4,1.6-4c-0.1-0.2-0.1-0.6-0.1-0.9c0-1.9,0-3.9,0-5.8
				c0-0.4,0.1-0.9,0.4-1.1c1.6-1,1.1-2.9,0.6-3.4c-1.1-1.1-1.4-3.3-4-2.9c-1,0.2-2.1,0.2-2.9-0.9c-0.4-0.5-1.7-0.4-2.9-0.7
				c0-3,0-6.4,0-9.8c0-0.3,0-0.8,0.2-0.8c1.5-0.5,0.9-1.6,1-2.4c0.4-6.7-0.2-13.4,0.6-20.2c1-8.8-0.2-17.8,1.2-26.7
				c0.9-5.6,0.1-11.4,0.2-17.2c0-0.6,0.5-1.6,0.7-1.6c2,0.2,3.5-0.8,5.3-1.1c2-0.4,3-1,3.2-2.8c0.1-0.4,0.4-0.8,0.7-1.2
				c0.8-0.8,0.7-3.1-0.2-3.7c-2.2-1.5-4.4-3-6.7-4.5c-2.4-1.6-5-3-7.4-4.7c-2.4-1.6-4.6-3.5-7-5.1c-1.9-1.3-4.2-2.2-6.1-3.5
				c-5.2-3.5-10.3-7.2-15.6-10.8c-2.5-1.7-5.2-3.2-7.8-4.9c-2-1.3-3.7-3.1-6-3.9c-3.7-1.5-4.9-4-5.1-7.2h-3.6
				c-0.4,1.4-1.1,2.9-1.1,4.3c0,1.3-1.1,1.8-1.9,2.4c-1.5,1-3.3,1.5-4.8,2.4c-2.1,1.2-4.1,2.7-6.3,3.9c-1.3,0.8-2.8,1.3-4.1,2.1
				c-1.7,1.1-3.3,2.4-5,3.6c-1.7,1.1-3.6,2-5.3,3c-2.2,1.2-4.3,2.4-6.5,3.5c-1.2,0.7-2.4,1.3-3.6,2c-1.8,1.2-3.5,2.5-5.3,3.6
				c-4.4,2.6-8.9,5.2-13.4,7.8c-1.6,0.9-3.2,2.3-4.8,2.4c-2.5,0.1-2.7,1.1-2.5,2.8c0.1,1,0,2.5,0.6,2.9c2.6,1.6,4.6,4.1,7.9,4.8
				c1.1,0.3,1.7,1.1,1.5,2.3c-0.5,2.3-1,4.7-1.2,7c-0.8,13.3,0.8,26.5-1,39.9c-1.2,8.9-0.2,18.1-0.2,27.1v1.6
				c-1.9,0.1-3.6,0.1-5.2,0.4c-1.6,0.3-3,0.9-4.7,1.4c0,5.2-0.1,10.7,0.1,16.1c0,0.5,1.1,1.3,1.8,1.5c2.3,0.6,4.7,0.9,7.1,1.3
				c-0.3,0.6-0.9,1.2-0.9,1.8c-0.3,2.3,0,4.6-1.1,6.9c-1,2.1,0.1,4.7-1.2,7.2c-1.1,2.1,0.3,4.7-1.2,7.2c-1.2,2,0,4.5-1.1,7
				c-1.2,2.8-0.7,6.3-1,9.5c-0.4,3.3-0.8,6.7-1.3,10c0,0.3-0.3,0.7-0.4,1c-0.3,0.8-0.6,1.6-0.7,2.3c-0.1,1.4,0.4,3.1-0.3,4.2
				c-1.2,2.1-0.8,4.3-1,6.4c0,0.5,0,1.1-0.3,1.3c-1.2,0.8-0.8,1.9-0.9,2.9c0,1.1,0,2.2,0,3.4c0,0.4-0.1,0.8-0.3,1.2
				c-0.3,0.8-0.8,1.5-0.9,2.2c-0.2,1.5,0.6,3.5-0.3,4.5c-1.2,1.5-0.8,2.8-0.9,4.2c-0.1,1,0.1,2-0.1,3c-0.6,2.9-1.4,5.8-1.9,8.7
				c-0.4,2.4,0,4.7-1.1,7.1c-1,2.2,0.1,4.9-1.2,7.4c-1.1,2,0.3,4.5-1.1,6.9c-1.2,2.1,0.1,4.9-1.2,7.4c-1.1,2-0.8,4.6-0.9,7
				c-0.2,2.4-0.3,4.7-1.1,7.1c-0.8,2.3-0.1,4.8-1.2,7.2c-0.9,2.1,0.1,4.6-1.2,7c-1.1,2.1,0.3,4.7-1.2,7.2c-1.2,2,0.2,4.6-1.1,7.1
				c-1.2,2.2-0.3,5.1-1.2,7.7c-1.1,3.3-0.4,7-1.1,10.4c-0.6,2.9-1.2,5.8-1.2,8.7C915.2,1243.1,918.8,1242.9,922.3,1242.7z
				 M1040.7,1182.9c-3.1,0.1-6.3,0-9.5,0v-3.1c2.8,0.2,5.6,0.4,8.4,0.6c0,0.2,0,0.3,0,0.5c-0.8,0.2-1.6,0.4-2.4,0.6
				c0,0.1,0,0.2,0,0.2h5.5c0,0.2,0.1,0.4,0.1,0.6C1042,1182.6,1041.4,1182.9,1040.7,1182.9z M1044.4,1176.1c-0.1-0.2-1.2,0-2,0
				c-0.1-0.2-0.2-0.6-0.3-1.2c-0.7,0-1.5-0.1-2.3,0c-0.9,0.1-1.7,0.3-2.4-0.7c-1.1-1.6-3.1-1-4.8-1.1c-0.5,0-1-0.3-1.6-0.4
				c0-0.2,0.1-0.4,0.1-0.6h4.2v-2.2c-0.6,0-1.2,0-1.8,0c-1.7,0.1-2.5-0.7-2.5-2.2c0-3.1,0-6.1,0-9.2c0-0.5-0.2-1.1-0.4-1.7
				c0.2,0,0.8-0.1,1.4-0.2c0.2-1.7,0-1.8-2.1-1.8v-5.3c0.1,0,0.2-0.1,0.3-0.1c0.1,0.4,0.2,0.8,0.4,1.2c0.2,0.6,0.3,1.4,0.7,1.9
				c1.4,1.4,2.5,2.9,2.9,4.7c0.1,0.4,0.7,0.8,1.2,1.1c1.2,0.9,1.5,2.2,2,3.4c0.5,1.1,1.5,2,2.1,3.1c0.4,0.7,1.1,1.7,1.1,2
				c0.1,1.7,1.6,2.4,2.6,3.5c0.1,0.1,0,0.2-0.1,0.5c-1.3,0-2.7-0.1-4.1,0c-0.6,0.1-1.2,0.6-1.8,0.9c0.5,0.4,1,0.8,1.5,1.2
				c1.9,1.6,4.2,1,5.7,1c1.1,1.2,1.9,2.1,2.7,3C1046.6,1176.4,1045.1,1177.8,1044.4,1176.1z M1049,1157.6c0.3,1.7,0.5,3.4,0.7,5.2
				c0,0.1-0.2,0.2-0.3,0.4c-0.5,0.9-0.6,1.7,0.3,2.7c1.7,2,2.1,4.4,1.6,6.9c0,0.2-0.2,0.3-0.3,0.4c-0.1,0.1-0.3,0.1-0.7,0.2v-4.6
				c-1.6,0.2-3.7-1-3.8,2c-0.7-1.6-1.3-2.8-1.8-4.1c-0.1-0.2-0.1-0.5-0.3-0.5c-2.2-0.9-2.4-2.9-3.3-4.6c-0.6-1.2-1.5-2.2-2.2-3.4
				c-0.7-1.1-1.4-2.3-2.1-3.4c-0.9-1.3-1.8-2.6-2.9-3.7s-0.8-2.2-0.3-3.4c0.2-0.5,0.6-1,0.8-1.6c0.3-0.9-0.4-2,1-2.9
				c0.7-0.5,0.1-2.3,0.3-3.6c0.1-0.8-0.6-1.9,1-2.3c0.1,0,0.2-0.6,0.2-1c0-1.4,0-2.8,0-4.3c0-0.7-0.5-1.6,0.9-1.7
				c0.1,0,0.2-0.2,0.2-0.3c-0.6-2.1,1-3.8,1.3-5.7c0.2-1.2,0.6-2.3,1-3.4c0.3,0,0.5,0.1,0.8,0.1c0.1,0.5,0.1,1,0.2,1.5
				c0.2,1.1-0.8,2.5,1.1,3.4c0.3,0.2,0,1.3,0.1,2c0.2,1-0.7,2.3,1,2.8c0.2,0,0.1,0.7,0.1,1c0.2,1.5-0.7,3.2,1.1,4.3
				c0.1,0.1,0.1,0.3,0.1,0.5c0.3,2.9,0,6,1,8.7c0.8,2,0.1,4.5,1.2,5.9c1.3,1.7,0.5,3.1,1,4.6c0.1,0.4,0.4,0.7,0.7,1
				C1048.6,1157,1048.9,1157.3,1049,1157.6z M1044.1,1095.1c0.1,0.3,0.4,0.6,0.4,0.9c0.3,5,0.5,10,0.9,15c0.1,0.8,0.6,1.6,0.9,2.4
				c0.1,0.4,0.2,0.9,0.2,1.4c0,2.9-0.1,5.8,0,8.7c0,1.1-0.6,2.3,0.9,3.4c0.7,0.5,0.2,2.3,0.2,3.6c0,0.8,0,1.6,0,2.5
				c-0.8-0.2-1.3-0.3-2-0.5c0-0.7,0.1-1.4,0-2.1s0.5-1.6-0.9-1.8c-0.2,0-0.1-1.1-0.3-1.6c-0.3-1.2,0.9-2.7-1.1-3.5
				c0,0,0-0.1-0.1-0.2c-0.4-2.1-0.8-4.2-1.2-6.2c-0.2-1.3,0.5-2.7-1-3.9c-0.5-0.4-1-2.2,0.6-3c0.2-0.1,0.4-0.5,0.4-0.7
				c-0.5-2.3-0.5-4.9,0.3-6.9c1-2.5,0.6-5,1.2-7.4C1043.8,1095.2,1044,1095.2,1044.1,1095.1z M1034.5,1083.4
				c0.4-0.6,0.9-1.2,1.5-2.1c0.3,0,0.9,0,1.7-0.1c0.1-0.6,0.2-1.3,0.3-2c0.6-0.1,1.1-0.1,1.5-0.1c0.7-1.3,1.3-2.5,1.9-3.8h2.1
				c0,3.8,0.1,7.5,0,11.3c0,1.1,0.6,2.2-1,3.2c-0.7,0.4-0.1,2.2-0.2,3.4c-0.1,0.9,0.7,2-1,2.5c-0.2,0-0.1,0.8-0.2,1.2
				c-0.3,1.5,0.8,3.2-1.1,4.3c-0.3,0.2-0.1,0.9-0.1,1.4c0,0.8,0,1.5,0,2.3c-0.3,0-0.5,0-0.8,0c0-1.2,0.1-2.3,0-3.5
				c-0.1-0.6-0.5-1.1-0.8-1.6c-0.1-0.1-0.3-0.2-0.3-0.4c-0.4-2.1-0.8-4.2-1.2-6.3c-0.2-1,0.4-2-1-2.9c-0.7-0.5-0.1-2.3-0.3-3.6
				c-0.1-0.8,0.7-2-1-2.3C1034.4,1084.2,1034.3,1083.6,1034.5,1083.4z M1029.6,1101.5c-0.1-0.6-0.8-1.1-0.9-1.7
				c-0.1-1.2,0-2.5-0.1-3.7c-0.2-2.4,0.4-4.4,2.2-6.2c0.6-0.5,0.6-1.5,1-2.2c0.1-0.2,0.5-0.3,1.2-0.6c0,1.2-0.1,2.1,0,3
				s-0.4,1.8,0.9,2.5c0.5,0.3,0.1,1.9,0.3,2.9c0.1,0.7-0.6,1.7,0.9,2c0.2,0,0.1,1.2,0.2,1.8c0.2,1.2-0.6,2.6,1.1,3.4
				c0.1,0.1,0.1,0.3,0.1,0.5c0.3,2.3,0.5,4.5,0.8,6.8c0.1,0.5,0.5,1,0.7,1.4c-0.2,0.8-0.6,1.7-0.7,2.7c-0.3,3.3,0,6.7-1,9.7
				c-0.7,2.1-0.1,4.6-1.2,6.2c-1.2,1.8-0.2,3.7-1.1,5.1c-1.1,1.7-0.4,3.6-1.2,4.9c-1.5,2.3-0.7,4.7-1.5,7c-0.3-1.3-0.5-2.7-0.8-4
				c0.1-0.6,0.3-1.8,0.2-1.8c-1.5-0.3-0.9-1.3-0.9-2c0-10.1,0-20.2-0.1-30.3c0-0.7-0.7-1.5-0.9-2.2c-0.3-1.1-0.9-2.2,0.4-3.3
				C1029.7,1102.9,1029.7,1102.1,1029.6,1101.5z M1017.9,1182.5c0.5-0.2,1-0.4,1.6-0.6v-1.2c-0.1,0-0.3,0-0.3,0
				c-1.3,0.7-2.6,1.6-4,2c-1.2,0.3-2.7,0.1-4,0c-1.1-0.1-2.2-0.7-3.3-0.7c-3.9-0.1-7.7,0-11.1,0c-0.2-1.1-0.4-2.4-0.6-3.7
				c1.4-0.2,3.1-0.5,5.3-0.8c0.5,0.1,1.6,0.5,2.6,0.6c4.5,0.2,9.1,0.2,13.6,0.3c0.2,0,0.3-0.2,0.9-0.6c-0.3,0.8-0.4,1.1-0.5,1.5h2.5
				C1021,1182.4,1020.6,1183.1,1017.9,1182.5z M1018.3,1143.1c0.1,0.6,0.5,1.2,0.7,1.8c-1,0.5-1.1,1-0.1,1.7
				c0.3,0.2,0.5,0.6,0.5,0.8c0,7,0,13.9-0.2,20.9c-1.5-1.2-1.5-2.7-0.8-4.3c-0.7-0.1-1.3-0.2-1.6-0.2c-1-1.4-2-2.7-2.9-4
				c-0.7-1-1.4-2-2-3s-0.9-2.2-1.6-3.1c-0.8-1.3-1.9-2.5-2.8-3.7c-0.6-0.8-1-1.7-1.5-2.6c-0.9-1.5-2-2.9-2.6-4.4
				c-0.7-1.7-1.5-3.3-2.9-4.8c-0.7-0.8-0.2-2.2,1-3.2c1-0.9,1.4-2.5,2.1-3.7c0.8-1.4,1.3-3,2.5-4.1c1.3-1.1,1.2-2.9,3.1-3.9
				c0.9-0.5,1-2.4,1.6-4c0.7,1,1.3,1.7,1.8,2.4c0.6,1,1,2.1,1.5,3.2c0.1,0.3,0.4,0.5,0.6,0.7c0.9,1.3,1.8,2.7,2.6,4
				C1019.6,1133.9,1017.6,1138.6,1018.3,1143.1z M1018.1,1126.4c-0.7-1.3-1.4-2.2-1.8-3.2c-0.3-0.6,0-1.2-1-1.8
				c-1.1-0.7-1.9-2-2.5-3.2c-0.3-0.5-0.8-1.5,0.7-2c0.7-0.3,0.8-1.7,1.6-2.2c1.3-0.9,1.2-2.3,2-3.4c0.3-0.4,0.5-1,1.1-1.4
				L1018.1,1126.4L1018.1,1126.4z M1006,1095.5c2.1,0.3,4-0.4,5.1-1.3c1.2-1.1,2.3-0.7,3.4-0.8c0.8-0.1,1.6,0,2.6,0
				c0,4.4,0,8.6-0.1,12.8c0,0.4-0.9,0.7-1.1,1.1c-0.7,1.2-1.3,2.4-2,3.5c-0.1,0.1,0,0.3-0.1,0.3c-1.1,1.2-2.1,2.5-3.4,3.9
				c-0.8-1.8-1.3-3.5-2.3-5c-0.7-1.2-2.1-2.2-3-3.3c-0.7-0.9-1.1-2-1.7-3c-0.6-1-0.8-2.1-1.7-3.1c-1.1-1.2-1.3-3.1-2-5.1
				C1002.3,1095.4,1004.2,1095.2,1006,1095.5z M998.4,1114.5c-0.2-0.3-0.4-0.6-0.4-0.8c0-4.6,0-9.2,0-13.8c0.3,0,0.5,0,0.5,0.1
				c0.9,1.5,1.8,3.1,2.7,4.6c0.6,1,1.8,1.8,1.9,2.8c0.2,2,3.1,2.5,2.9,4.6c0,0.6,0.7,1.3,1.2,2c0.6,0.9,1.4,1.7,1.8,2.6
				c0.6,1.5-0.3,2.8-1.2,4c-0.7,0.9-1.8,1.3-2,2.7c-0.1,1-1.3,1.8-1.9,2.7c-1.4,1.9-3.5,3.5-3.6,6.1c0,0.8-1.2,1.5-1.8,2.3
				c-0.2,0-0.3-0.1-0.5-0.1c0-5.3-0.1-10.6,0.1-15.9c0-0.9,0.8-1.7,1.1-2.6C999.2,1115.4,998.6,1114.9,998.4,1114.5z M995.6,1169.9
				c0.7-0.1,1.4-0.1,2.1-0.2c0.1-0.6,0.2-1.3,0.3-1.9h7.6c0,1.7,1.6,1.4,2.7,1.1c0.6-0.1,1-1,1.7-1.8c-1.4-0.2-2.2-0.3-3-0.4
				c0.5-0.9,1-1.8,1.6-2.9h-2.8c0,0.5-0.1,1.1-0.1,1.8c-0.9,0.2-2,1-2.5-0.6c0-0.2-0.7-0.2-1-0.2c-1.1,0-2.1,0.1-3.2,0
				c-1.3-0.1-2.4-0.6-2.4-2.1c0-4-1-8.3,0.3-12c1.3-3.9,0.2-7.6,1.2-11.7c2.5,4.4,4.3,8.9,7.3,12.6c3.1,3.9,4,8.7,8.5,12.2h-3.6v2.1
				c1.9-0.1,3.9-0.1,4.9,1.7c0.7,1.3,1.3,2.6,2.1,4.2h-21.9v-1.9H995.6z M989.9,1182.1h-20c-0.2-1.5,1.8-4,3.3-4c5.5,0,11,0,16.7,0
				V1182.1z M990,1157.7c-0.1,0.2,0.1,0.6,0.3,0.7c0.7,0.6,1.9,1,0,1.6c-0.2,0.1,0.1,1.2,0.4,1.7c-0.3,1-0.7,1.9-1.1,3.1h-5
				c-0.4,2.8,1.3,3.8,5.3,3v4h-12.6c0.1-0.2,0.3-0.4,0.3-0.6c-0.2-2.2,1.5-3.8,2.6-5.6c0.5-0.8,1.2-1.5,1.7-2.2
				c0.5-0.8,0.9-1.6,1.5-2.4c0.7-1.1,1.4-2.1,2.2-3.1c0.3-0.5,0.8-0.9,1.1-1.3c0.7-1.2,1.4-2.5,2.2-3.8c0.5-0.9,1.2-1.7,2.2-2.3
				c0,1.4,0.7,3.5-0.1,4.2C989.6,1155.7,990.2,1156.7,990,1157.7z M990.4,1095.2c2.3,0.9,2,2.6,2,4.2c0,3.2,0,6.5,0,9.7
				c0,1,0.4,2.1-1,2.8c-0.4,0.2-0.3,1.6,0,2.1c1.3,1.9,1.3,3.1,0,4.8c-0.3,0.4-0.1,1.1,0,1.6c0.1,0.4,0.5,0.7,0.8,1
				c-0.6,0-1.1,0.1-1.7,0.1c-0.1,0-0.3,0-0.2,0c-0.7-1.3-1.4-2.6-2-3.9c-0.9-1.8-1.8-3.7-2.8-5.5c-0.2-0.3-0.7-0.4-0.9-0.7
				c-0.9-1.1-1.7-2.2-2.5-3.4c-0.1-0.2,0.1-0.6,0.2-0.8c1-1.1,1.9-2.2,2.2-3.7c0.1-0.4,0.9-0.6,1.1-1c1.1-1.9,2.1-3.9,3.3-5.8
				C989.2,1096.3,989.9,1095.8,990.4,1095.2z M975.5,1093.3c0.4-0.5,0.9-0.9,1.1-1.1c1.2,0.5,2.5,1,4.1,1.6c0,0.2,0.1,0.8,0.1,1.5
				h6.1c-0.8,1.3-1.7,2.8-2.6,4.3c-0.2,0.4-0.4,0.8-0.8,1.1c-1.5,1.1-2.1,2.7-3.1,4.1c-0.5-1-1.1-2.2-1.7-3.3c-0.6-1-1.3-1.9-2-2.9
				c-0.2-0.3-0.3-0.7-0.4-1.1c-0.2-1.1,0.5-2.5-1-3.3C975.3,1094.2,975.4,1093.6,975.5,1093.3z M968.9,1165.2c-0.1-0.6-1-1,0.2-1.4
				c0.3-0.1,0.4-0.7,0.5-1.1c0.1-1.4-0.1-2.8,0.1-4.2c0.1-1-0.7-2.3,1-3c0.2-0.1,0.1-0.9,0.1-1.3c0-4.4,0-8.9,0-13.3
				c0-0.8-0.6-1.9,1-2.3c0.2,0,0.2-0.8,0.2-1.2c0-1.8-0.1-3.5,0-5.3c0.1-1-0.7-2.2,1-2.8c0.2-0.1,0.1-0.8,0.1-1.2c0-1.8,0-3.7,0-5.5
				c-0.1-2.1,0.8-3.8,2.7-5.2c0.8-0.6,1.1-1.6,1.7-2.4c0.4-0.6,0.8-1.2,1.2-1.8c0.6-0.9,1.2-1.9,1.7-2.8c0.8,1,1.6,2.1,2.4,3.2
				c0.5,0.7,0.9,1.5,1.3,2.3c0.7,1.4,1.4,2.9,2.1,4.3c0.3,0.5,0.8,1,1.1,1.5c1.2,1.8,2.4,3.5,3.6,5.3c0.2,0.3,0.1,0.7,0.1,1
				c0,5.5,0,11,0,16.5c0,0.6-0.6,1.3-1,1.8c-1,1.3-2.1,2.6-2.6,4.2c-0.2,0.8-0.6,1.7-1.3,2.1c-1.9,1.2-1.7,3.6-3.9,4.7
				c-0.8,0.3-1,1.6-1.5,2.4c-1.3,2-2.2,4.1-4.1,5.8c-0.9,0.8-0.9,2.4-1.6,3.4c-0.9,1.2-2,2.3-3.3,3c-0.8,0.4-2,0.2-3.9,0.3
				c0.7-1,1.4-1.6,1.4-2.3C969.4,1168.2,969.3,1166.7,968.9,1165.2z M958,1181.4c-0.8-0.4-1.4-0.6-2-0.9c-0.2-0.1-0.3-0.3-0.4-0.3
				c-2.4-0.4-4.8-0.7-7.2-1.1c-0.5-0.1-1-0.3-1.5-0.6c3.6-0.9,7.4,0.3,11.1-1L958,1181.4L958,1181.4z M953,1110.4
				c0-0.1,0.5-0.2,0.6-0.4c0.5-1.7,0.9-3.4,1.3-5.2c0.2-0.7-0.5-1.6,0.9-1.7c0.1,0,0.2-0.2,0.2-0.3c0.4-1.6,0.4-3.5,1.4-4.7
				c1-1.3,0.9-2.7,1.4-4c0.7-1.6,1.1-3.4,1.7-5c0.4-1.2,1.1-2.4,1.8-4.1c1,0.4,2.3,0.9,3.7,1.5c0,1.6,0.6,3.6-0.1,5.1
				c-2.2,4.4-0.1,8.9-1.2,13.2c-1.2,4.7-0.2,9.3-0.7,13.9c-0.1,0.8-0.6,1.5-0.9,2.2c-0.2,0.4-0.3,0.9-0.3,1.3c0,1.8-0.1,3.5,0,5.3
				c0.2,2.7-0.8,4.8-3.3,6.4c-0.8,0.5-1.1,1.6-1.5,2.5c-0.5,0.9-0.8,1.9-1.3,2.8c-0.3,0-0.5-0.1-0.7-0.1c0-1.5,0.1-3.1,0-4.6
				c0-0.6-0.5-1.2-0.7-1.8c-0.2-0.5-0.4-1-0.4-1.5c0-2.1,0-4.2,0-6.4c0-0.9,0.6-2-1-2.5c-0.2,0-0.2-0.6-0.2-1c0-1.4,0.1-2.7,0-4.1
				c0-0.7,0.6-1.8-1-1.9C952.8,1113.8,952.9,1112.1,953,1110.4z M937.5,1143.5c0.2-1.5,0.1-2.9,0.2-4.4c0.1-1-0.6-2.2,1-2.8
				c0.2-0.1,0.2-0.8,0.2-1.2c0-1.4-0.1-2.7,0-4.1c0.1-1-0.6-2.3,1-2.9c0.2-0.1,0.1-0.5,0.1-0.8c0.4-2.2-0.8-4.5,1.1-6.7
				c0.7-0.9,0.1-2.6,0.2-4c0.1-0.9-0.6-2.1,1-2.6c0.2-0.1,0.2-0.8,0.2-1.2c0-1.8,0-3.5,0-5.3c0-0.9-0.6-2,1-2.4
				c0.1,0,0.1-0.4,0.2-0.7c0.3-3.4,0.5-6.8,0.8-10.1c0.1-1.2-0.2-2.3,0.9-3.5c0.8-0.9,0.2-2.8,0.3-4.3c0-0.5,0.3-1,0.4-1.4
				c0.3,0,0.5,0.1,0.8,0.1c0,2.1,0,4.2,0,6.3c0,0.7-0.6,1.7,0.9,2c0.1,0,0.2,0.7,0.2,1.1c0,1.6,0,3.2,0,4.8c0.1,1.1-0.5,2.4,1,3.3
				c0.4,0.2,0.2,1.2,0.2,1.9c0,1.8-0.4,3.7,0.1,5.5c0.4,1.7-0.1,3.2-0.2,4.7c-0.1,1.4-1.3,2.8-2,4.1l-0.1,0.1c-0.5,1.5-1,3-1.3,4.5
				c-0.2,1.1-1.4,4.4-2.3,5.5c-0.1,0.1-0.1,0.3-0.2,0.5c-0.3,1.5-0.4,3.2-0.9,4.6s-1.5,2.7-2.2,4.1c-0.2,0.3-0.1,0.7-0.2,1
				c-0.1,0.7,0.5,1.6-1,1.8c-0.1,0-0.2,0.5-0.2,0.8c-0.5,1.8-1,3.6-1.5,5.4c-0.2,0-0.4,0-0.6-0.1
				C937,1145.9,937.4,1144.7,937.5,1143.5z M938.9,1166.5c1.4-2,2.9-3.9,4.4-5.9c0.8-1.1,1.6-2.1,2.4-3.2c1.2-1.8,3-3.3,3.8-5.4
				c0.4-1.1,2.1-1.7,2.9-2.7c0.8-0.9,1.2-2.1,1.8-3.2l0.7,0.1c0,1.5-0.1,3.1,0,4.6c0,0.6,0.5,1.2,0.7,1.8c0.2,0.4,0.4,0.9,0.4,1.3
				c0,1.6,0,3.2,0,4.8c0.1,1.2-0.6,2.6,1,3.5c0.2,0.1,0.1,0.8,0.1,1.2c0,1.2,0,2.5,0,3.7c0.1,1.6,0.3,3.1,0.4,4.8
				c-2,0-4.6,0.6-6.5-0.2c-1.8-0.8-3.3-0.8-5-0.8c-0.6,0-1.2,0.5-1.8,0.7c-0.4,0.1-0.9,0.3-1.3,0.3c-2.7,0-5.4,0-8.2,0
				C936.3,1170.1,937.6,1168.3,938.9,1166.5z"/>
				<path class="st5" d="M934.7,1161.7c0.7-1.3,0.4-3.1,2-4c0.2-0.1,0.2-0.5,0.2-0.8c0.3-1.5,0-3.7,0.9-4.3c1.8-1.2-0.1-3.5,2.2-4.2
				c0.1,0,0.1-0.6,0.1-0.8c0.2-0.7-0.6-1.9,1.1-2c0,0,0.1-0.2,0.1-0.3c-0.8-2.1,1-3.7,1.3-5.6c0.2-1.5,1.2-2.9,1.9-4.4
				c0.4-0.9,0.7-1.8,1-2.7c0.5-1.6,0.7-3.3,1.5-4.7c0.9-1.5,0.5-3.3,2-4.5c0.2-0.1,0.2-0.4,0.3-0.6c0.5-1.7,1-3.5,1.6-5.7
				c0.2,0.8,0.4,1.1,0.4,1.4c0,2,0,4,0,6c0,0.8-0.5,1.8,1,2.2c0.2,0.1,0.2,0.7,0.2,1.1c0,1.6,0,3.2,0,4.8c0,0.7-0.6,1.7,0.9,1.9
				c0.1,0,0.2,0.7,0.2,1.1c0,1.9,0,3.9,0,5.8c0,1.1-0.1,2-1.1,3c-1.4,1.4-2.7,3-3.5,4.9c-0.5,1.3-2.1,2.3-3.1,3.5
				c-0.6,0.7-0.1,1.8-1.4,2.5c-2.1,1-2.9,3.3-4.1,4.9c-1.7,2.3-4,3.9-5.5,6.3c-0.2-0.1-0.3-0.1-0.5-0.2
				C934.5,1164.8,934,1163,934.7,1161.7z"/>
				<path class="st5" d="M957.5,1081.2c-0.2-0.8-0.1-1.7-0.5-2c-2.4-1.6-4.3-3.5-5.7-5.8c-0.4-0.7-0.8-1.3-1.2-2
				c-0.4-0.6-0.9-1.2-1.5-2c-0.2,0.5-0.4,0.8-0.4,1c0,3.7,0,7.3,0,11c0,0.3,0.1,0.8,0.2,0.8c1.5,0.4,0.9,1.4,1,2.2
				c0,1.5,0,3.1,0,4.6c0,0.4,0,1.1,0.2,1.2c1.6,0.5,1,1.6,1,2.5c0.1,1.8,0,3.7,0,5.5c0,0.4-0.1,1.1,0.1,1.2c1.8,0.7,0.9,2.1,1.1,3.2
				c0.1,1.1,0,2.2,0,3.3c0.2,0,0.4,0,0.6,0.1c0.6-1.7-0.2-3.6,1.3-5.3c1-1.2,0.9-3.2,1.4-4.8c0-0.1,0.1-0.2,0.2-0.3
				c1.5-1.3,1.4-3.2,2.2-4.8c0.2-0.5,0.4-1,0.6-1.5c0.4-1.1,0.2-2.3,1.2-3.5c0.8-1,0.2-2.9,0.2-4.5
				C958.5,1081.3,958,1081.2,957.5,1081.2z"/>
				<path class="st5" d="M974,1114c0.6-0.3,1-0.3,1.1-0.5c0.5-0.9,0.8-2,1.5-2.8c1.2-1.3,2.2-2.7,2.1-4.5c0-0.3-0.2-0.7-0.5-1
				c-1-0.8-2.2-1.4-1.9-2.8c0.1-0.4-0.2-0.8-0.4-1.1c-0.2,0.2-0.4,0.3-0.6,0.5c-0.5,2.1,0.2,4.2-1.1,6.3
				C973.3,1109.6,974,1111.8,974,1114z"/>
			</g>
		</g>
		<g>
			<g>
				<path class="st5" d="M-2,1183c0.4,0,1.1,0.1,1.2-0.1c4.1-3.9,10.5-2.8,16-2.8c2.1,0,4.3,2.2,6.8,3.5c1.8-1,3.5-1.9,5.7-3.1
				c0.2,1.1,0.3,2,0.4,2.6c3.8,0.4,7.2,0.8,10.6,1.1c0,0.3,0,0.6-0.1,0.9c0.7-0.4,1.5-0.8,2.4-1.3c-1.3-0.5-2.3-1-3.5-1.5
				c1.8-2.9,5-4.4,10.1-5.2c-1.6-0.6-3.2-1.2-4.8-1.8c-0.3,0.2-0.5,0.4-0.8,0.6c-0.1-0.7,0.2-1.6-0.4-2.1c-1-0.9-2.3-2.1-3.7-2.3
				c-2.8-0.4-5.7,0.1-8.5-0.2c-1.2-0.1-3-1.3-3-1.9c0.1-1.9,1-3.7,1.4-5.6c0.2-0.8-0.4-1.6-0.4-2.4c0-1.2,0.2-2.4,0.3-3.8
				c4.1,0.5,8.5-0.6,11,2.3c1.5-1.3,3-2.5,4.7-3.9c1.7,1.6,3.2,3,5.3,5c1.7-1.1,3.2-2.1,4.8-3.1c-0.3-0.3-0.5-0.6-0.8-1
				c-1.5,0-3.1-0.1-4.7-0.1c-5-5.6-3.4-9,5.6-11.5c-1.9-1.7-3.8-3.4-5.7-5.1c0.7,0.3,1.3,0.6,2,0.9c1.5-1.7,3-3.5,4.8-5.5
				c0.9,1.2,1.5,2,2.1,2.8c1.5-1.8,2.3-3.9,4.4-5c2.4-1.3,5.9-1.6,7.2,1.6c2.6-0.8,4.9-1.6,7.6-2.5c3.7,1.9,5.3,1.6,9.6-2.7
				c2.8,4,6.6,6.6,14.2,4.4c-1.4-1.2-2.5-2.2-3.5-3.1c0.5,0.4,1,0.7,1.5,1.1c2.6-2,5.2-4.1,7.5-5.9c0.3,0.4,1,1.5,2,2.9
				c1.6-0.7,3-1.3,4.5-2c0.6,0.6,1.3,1.3,2.3,2.2c2.3-1.1,4.5-2.2,7.1-3.4c0.3,1,0.5,1.8,0.7,2.5c2.9-0.2,6.3-1.2,8.5-0.5
				c2.1,0.6,3,2.9,4.4,4.5c-0.3,0.3-0.6,0.6-0.8,0.9c2.1-0.2,4.3-0.2,6.3-0.6c7.4-1.5,8.5-1.1,9,3.8c1.3,0.3,2.4,0.8,3.7,1
				c1.2,0.1,2.5-0.1,4.1-0.2c0.1,3,2.6,3.5,6.6,3.6c6.7,0.1,8.6,2.5,7.2,8.3c-1.3,0.1-2.7,0.1-4.4,0.2c0.7,0.9,1.2,1.7,2,2.6
				c-1.1,0.1-2.1,0.2-3.3,0.3c0.3,0.2,0.5,0.4,0.6,0.4c1.8,0.2,3.6,0.4,5.4,0.7c4.7,0.7,6.1,2.7,4.4,5.7c-0.7,1.3-1,2.7-1.5,4.3
				c-1.4,0.1-3.6,0.3-5.9,0.5c0,0.2-0.1,0.4-0.1,0.6c4.4,1.7,8.8,3.3,13.2,5c-0.5-6.9-1.1-13.8-1.6-21c6.9-0.3,13.4-0.5,20.3-0.8
				c0-3.9,0-7.4,0-11.5c15.5,0,30.5,0,45.8,0c0.7,3.3,1.4,6.9,2.2,10.7c3.8,0.3,7.6,0.5,11.8,0.8c0-26.3,0-52.3,0-78.4
				c5.1-0.3,9.7-0.5,14.2-0.7c2-10.8,8.2-15.3,20.9-15.3c13.5,0,21.9,5.2,23.6,14.8c6.4-0.2,12.9-0.4,20.4-0.6c0,34.3,0,68.4,0,103
				c8.3-0.4,15.5-0.8,22.2-1.1c0.3-3.5,0.6-6.6,0.7-9.6c0-1.6,1.2-1.8,3.2-1.9c4.3-0.1,8.5-0.4,12.8-0.5c2.9-0.1,4-1,4.1-2.8
				c0.4-4.5,1.1-9,1.3-13.6c0.8-13.9,1.4-27.8,2.1-41.7c0.5-10.2,1.1-20.4,1.6-30.9c6.1,0.7,5.8-2,5.8-4.7c0-2.6,0.5-5.2,0.7-7.9
				c1.5-0.3,2.7-0.7,3.9-0.7c2.4-0.1,2.8-0.9,3.1-2.4c0.3-1.4,2-2.7,2.7-4.1c0.7-1.6,1.3-3.2,1.4-4.8c0.3-3.5,0.2-7,0.5-10.5
				c0.1-0.8,1.4-1.6,2.2-2.4c0.5,0.1,1,0.2,1.5,0.4c0.9,4.8,1.9,9.6,2.8,14.5c0.1,0.7,0.1,2,0.7,2.1c5,1.2,4.7,4.3,5.9,7.1
				c1.5-0.1,2.8-0.2,4.5-0.3c0.8,4.2,1.7,8.4,2.5,12.5c0.2-0.1,0.4-0.2,0.5-0.3c0.9,1,2.6,1.9,2.7,2.9c0.6,4.8,0.8,9.6,1.1,14.4
				c0.6,11.4,1.2,22.9,1.9,34.3c0.3,5,0.4,10,1,15c0.1,1.1,1.5,2.8,2.7,3c5.9,1,8.3,3.4,8,7.2c-0.1,0.8,0.3,1.7,0.5,2.5
				c3.2,0.3,6.3,0.7,10.1,1.1c0,7.9,0,15.9,0,23.9c7.2,0.3,13.5,0.5,20.4,0.8c2.4-6.3,0.4-12.7,0.1-19.2c5.8,0,11.2,0,17.1,0
				c0.3-4.4,0.8-8.6,1-12.8c0.2-6.9,0.2-13.8,0.5-20.7c0-0.8,1-2.2,1.8-2.3c5.6-0.9,8.1-2.8,4.7-7.3c16.4,0,31.9,0,47.8,0
				c-0.3-0.3,0-0.1,0,0c-0.1,1.7-1.2,3.7-0.1,4.9c0.8,0.9,4.4,0.5,6.7,0.9c0.9,0.2,2,1.1,2.1,1.7c1,8.5,1.9,17,2.6,25.4
				c0.2,2.2,1.2,3.3,4.7,3.4c10,0.3,19.9,0.7,30.4,1.1c0,7.4,0,14.6,0,22.1c8.8,0.3,17.1,0.6,25.6,0.9c0.4,2,0.9,3.9,1.2,5.9
				c0.3,2.3,1.8,3.3,5.5,3.1c8.5-0.3,17.1-0.3,25.7-0.7c3.2-0.1,5.3,0.5,5.7,2.7c0.6,3.2,3.2,3.9,7.8,3.7c8.4-0.3,16.8-0.1,25.6-0.1
				c0-5.5,0-10.3,0-15.2c3.6-0.6,6.9-1.1,10.5-1.6c-1-5.6-2.1-11.2-3.2-17.1c6.4-0.5,12.7-1,19.5-1.6c0-4.4,0-8.8,0-13.2
				c0-5,0-5,7.6-5.4c0.7,0,1.4,0,2.4,0.1c0.7,5,1.5,10,1.9,14.9c0.1,1.6,0.8,2.4,3.3,2.6c6.8,0.5,13.5,1.1,20.8,1.7
				c0.6,4.5,1.4,9,1.7,13.5c0.1,1.7,1,2.4,3.2,2.7c3.2,0.4,6.4,1.2,9.5,1.3c4,0,4.3,1.5,4.4,3.4c0.3,4.7,0.4,4.7,7.3,4.7
				c3,0,6,0,9-0.1c0.3,0,0.5-0.1,1.2-0.4c0-2.5,0.1-5.1,0-7.7c-0.1-1.5,0.9-1.9,3.1-1.9c9.4,0.2,18.8,0.4,28.3,0.6
				c2.3,0,4.5,0.2,7.4,0.3c-0.7-17.4-1.4-34.6-2.1-52.1c2.7,0,5.2,0,8,0c1.1,16.5,2.1,33,3.2,49.7c6.4,0.4,12.6,0.8,18.7,1.2
				c0,37,0,73.9,0,110.9c-286.1,0-572.2,0-858.2,0C-2,1245.1-2,1214.1-2,1183z"/>
			</g>
		</g>
		<rect x="0.2" y="1213.4" class="st5" width="2000.3" height="788.7"/>
	</g>
	<g id="Guides">
	</g>
</svg>
